<svg width="118" height="34" viewBox="0 0 118 34" fill="none" xmlns="http://www.w3.org/2000/svg">
	<path d="M117.999 26.4345C117.999 26.4914 117.995 26.5481 117.985 26.6041C117.848 27.4259 117.759 28.2733 117.562 29.0933C116.891 31.6667 115.227 32.9826 112.601 33.0996C112.193 33.1288 111.755 33.1288 111.347 33.1288C94.9772 33.1288 78.6369 33.1288 62.2675 33.1288C55.2062 33.1288 48.1448 33.1288 41.1127 33.1288C38.9243 33.1288 36.7067 33.2458 34.5182 33.2458C30.6374 33.2458 26.7274 33.1873 22.8466 33.1288C21.767 33.0996 20.7165 33.0411 19.6369 32.8949C17.0983 32.5732 15.7561 31.2573 15.4351 28.6839C15.3184 27.7189 15.2309 26.7539 15.2309 25.7596C15.2017 21.2855 15.2309 16.7821 15.2017 12.3079C15.1725 9.67606 15.1142 7.07345 15.0266 4.44159C14.9683 2.39459 16.5439 0.756993 18.5865 0.756993C19.3743 0.756993 20.1913 0.786236 20.9792 0.756993C21.5627 0.72775 21.6503 0.932448 21.6503 1.45882C21.6503 8.91574 21.6503 16.3434 21.6503 23.8004C21.6503 24.2975 21.7086 24.8239 21.8545 25.321C22.1171 26.3445 23.0217 26.9878 24.0721 26.9878C28.7116 26.9878 33.3802 26.9586 38.0197 26.9293C38.5816 26.9293 39.1307 26.852 39.6926 26.7657C40.1879 26.6897 40.5583 26.2627 40.5583 25.7617C40.5583 23.3272 40.5583 20.8574 40.5583 18.367C40.5583 17.8147 41.006 17.3669 41.5583 17.3669C43.2286 17.3669 44.8787 17.3669 46.5674 17.3669C47.0035 17.3669 47.357 17.7204 47.357 18.1565C47.357 20.8761 47.357 23.6249 47.357 26.3445C47.357 26.8708 47.5029 27.0171 48.0281 27.0171C52.1424 26.9878 56.2566 26.9878 60.3709 26.9586C61.9465 26.9586 63.5222 26.8708 65.0979 26.8124C65.3001 26.8124 65.4188 26.5921 65.4188 26.3899C65.4188 26.2846 65.4188 26.183 65.4188 26.0813C65.4188 23.0693 65.3897 20.0573 65.448 17.0453C65.4772 15.934 65.5647 14.8228 65.8273 13.7408C66.3234 11.5184 67.8699 10.3486 70.0583 10.027C70.8461 9.91001 71.634 9.91001 72.4218 9.91001C74.4352 9.91001 76.4485 9.85152 78.4327 10.027C81.0588 10.2902 82.6345 11.957 83.0138 14.6181C83.1013 15.3199 83.1597 16.051 83.1597 16.7528C83.1889 19.8818 83.1597 23.0108 83.1597 26.1398C83.1597 26.4951 83.447 26.8077 83.8023 26.8122C83.8118 26.8123 83.8213 26.8124 83.8308 26.8124C85.0855 26.8124 86.3402 26.7831 87.5949 26.8416C88.1785 26.8709 88.2952 26.6662 88.266 26.1398C88.2368 23.1863 88.2368 20.2327 88.266 17.3084C88.2952 16.2265 88.3244 15.1152 88.5578 14.0332C89.1414 11.4014 91.0089 9.96848 93.8684 9.93924C96.6988 9.91 99.4999 9.93924 102.33 9.93924C105.482 9.93924 108.662 9.91 111.813 9.96849C112.631 9.96849 113.448 10.0855 114.206 10.3194C116.19 10.9043 117.212 12.3664 117.591 14.3257C117.732 15.0315 117.818 15.7373 117.929 16.4168C117.937 16.4653 117.942 16.5143 117.942 16.5635C117.999 19.8727 117.999 23.1537 117.999 26.4345ZM71.7343 16.2265C71.5233 16.2265 71.2838 16.3663 71.2838 16.5774C71.2838 19.8818 71.2838 23.1863 71.2838 26.4907C71.2838 26.8416 71.4589 26.8709 71.7215 26.8709C73.4431 26.8709 75.1354 26.8709 76.857 26.8709C77.2363 26.8709 77.3239 26.7246 77.3239 26.3737C77.2947 25.8474 77.2947 25.2917 77.2947 24.7654C77.2947 22.1335 77.2655 19.4724 77.2655 16.8406C77.2655 16.3727 77.1488 16.1972 76.6528 16.2265C75.9816 16.2557 75.3105 16.2265 74.6394 16.2265C73.6779 16.2265 72.7164 16.2265 71.7343 16.2265ZM110.989 26.8417C111.541 26.8415 111.989 26.3939 111.989 25.8416C111.989 22.798 111.989 19.8088 111.989 16.782C111.989 16.4913 111.754 16.2265 111.463 16.2265C109.859 16.2265 108.254 16.2557 106.649 16.2265C106.124 16.2265 106.036 16.4019 106.036 16.899C106.065 20.0573 106.036 23.2447 106.036 26.403C106.036 26.6744 106.295 26.8678 106.566 26.8643C108.035 26.8458 109.505 26.8424 110.989 26.8417ZM99.44 26.8702C99.8276 26.8713 100.142 26.5566 100.142 26.169C100.142 24.2682 100.142 22.3382 100.142 20.4374C100.142 19.2092 100.142 17.981 100.113 16.7236C100.113 16.5481 99.9084 16.2265 99.7917 16.2265C98.1782 16.2008 96.5647 16.1977 94.8919 16.1973C94.5039 16.1972 94.1602 16.511 94.1602 16.899C94.1602 18.0395 94.1602 19.18 94.1602 20.2912C94.1602 22.2797 94.1602 24.2682 94.1602 26.2568C94.1602 26.6954 94.2769 26.8416 94.7438 26.8416C95.7359 26.8124 96.7279 26.8416 97.72 26.8416C98.2902 26.8628 98.8451 26.8686 99.44 26.8702Z" fill="#007AFF" />
	<path d="M0.0286815 27.3575C0.0288145 26.8233 0.448781 26.3856 0.982957 26.3834C1.93603 26.3793 2.89716 26.3954 3.79286 26.1983C5.5436 25.8474 6.41897 24.5022 6.76912 22.8354C6.91502 22.0751 6.97337 21.2855 6.97337 20.5252C7.00255 16.4897 7.00255 12.4834 6.97337 8.44793C6.97337 7.86308 7.14845 7.68762 7.70285 7.71686C9.3077 7.7461 10.9125 7.7461 12.5174 7.71686C12.9259 7.71686 13.0718 7.83383 13.0718 8.24323C13.0426 12.8344 13.0718 17.3962 12.9843 21.9874C12.9259 24.2975 12.3715 26.5492 11.1168 28.5085C9.48277 31.0526 7.06091 32.3686 4.14301 32.8364C3.13671 32.9866 2.1147 33.0424 1.10004 33.1076C0.510218 33.1455 0.00639127 32.6751 0.0117613 32.0841C0.0259214 30.5256 0.0282865 28.9435 0.0286815 27.3575Z" fill="#007AFF" />
	<path d="M75.8356 7.13196C74.7268 7.19045 73.7347 7.30741 72.7134 7.30741C66.0023 7.33665 59.3203 7.30741 52.6091 7.33666C51.9672 7.33666 51.296 7.42438 50.6541 7.59984C48.6699 8.09697 47.5028 9.58836 47.4152 11.6646C47.386 12.4249 47.386 13.1852 47.386 13.9455C47.386 14.2964 47.2402 14.4427 46.89 14.4427C44.9934 14.4427 43.0676 14.4427 41.1709 14.4134C41.025 14.4134 40.7332 14.1795 40.7332 14.0625C40.6457 11.5476 40.9375 9.09123 42.0755 6.81029C43.5052 3.97374 45.8979 2.39462 48.9325 1.72204C50.3331 1.42961 51.7921 1.25415 53.2219 1.25415C59.933 1.19567 66.615 1.22491 73.3262 1.25415C73.7055 1.25415 74.1724 1.25415 74.435 1.45885C75.077 1.95598 75.7481 2.54084 75.8064 3.41812C75.894 4.58783 75.8356 5.84528 75.8356 7.13196Z" fill="#FF9500" />
</svg>
