<svg width="120" height="32" viewBox="0 0 120 32" fill="none" xmlns="http://www.w3.org/2000/svg">
	<path d="M66.306 25.1744C66.306 24.9531 66.306 24.7539 66.306 24.5768C66.306 20.7256 66.306 16.8744 66.306 13.0232C66.306 12.2264 66.2621 11.4296 66.1305 10.6549C65.7357 8.4416 64.639 6.67093 62.5772 5.67493C60.7348 4.7896 58.7388 4.72319 56.7428 4.96666C55.3391 5.14373 53.9792 5.52 52.8605 6.47173C51.8735 5.60853 50.0311 4.87813 48.5835 4.87813C47.3771 4.87813 46.1488 4.92239 44.9644 5.07733C43.6483 5.25439 42.4639 5.82986 41.5208 6.7816C40.0512 8.22027 39.459 10.1016 39.437 12.0936C39.3493 16.2989 39.4151 20.4821 39.4151 24.6875C39.4151 24.8203 39.4151 24.9531 39.4151 25.0859C41.0163 25.0859 42.5736 25.0859 44.1528 25.0859C44.1528 24.8867 44.1528 24.7318 44.1528 24.5768C44.1528 20.8363 44.1528 17.1179 44.1528 13.3773C44.1528 12.8019 44.1747 12.2485 44.2406 11.6731C44.3722 10.6107 44.9205 9.85813 45.9514 9.52613C46.6094 9.32693 47.2894 9.26054 47.9912 9.3712C48.9125 9.52614 49.6801 9.9024 50.0311 10.7656C50.2943 11.4075 50.4698 12.1157 50.4698 12.824C50.5136 16.7416 50.4917 20.6371 50.4917 24.5547C50.4917 24.7318 50.4917 24.9088 50.4917 25.0638C52.0929 25.0638 53.6502 25.0638 55.2294 25.0638C55.2294 24.8646 55.2294 24.6875 55.2294 24.5104C55.2294 20.6814 55.2294 16.8744 55.2294 13.0453C55.2294 12.5363 55.2294 12.0272 55.3391 11.5403C55.4707 10.9427 55.7119 10.3672 56.2603 9.99094C57.3351 9.26053 58.4756 9.2384 59.66 9.59254C60.5155 9.85814 61.0857 10.4336 61.3051 11.3189C61.4367 11.8501 61.5463 12.3813 61.5683 12.9347C61.5902 16.3211 61.5683 19.7075 61.5902 23.0939C61.5902 24.444 62.4456 25.0638 63.4985 25.1744C64.3977 25.2408 65.319 25.1744 66.306 25.1744ZM68.6968 12.9568C68.7626 13.5987 68.8503 14.2848 68.9161 14.9488C69.0258 16.2989 69.3548 17.6269 69.8154 18.8886C70.4515 20.6371 71.4604 22.12 72.8642 23.2931C74.4434 24.599 76.3297 25.263 78.3477 25.3958C79.9708 25.5064 81.6377 25.5064 83.2389 25.0638C84.7304 24.6432 86.0903 23.9571 87.2528 22.8947C88.6346 21.611 89.4023 19.9952 89.8629 18.2024C90.0384 17.5384 90.0823 16.8523 90.1919 16.144C88.503 16.144 86.9457 16.144 85.3446 16.144C85.3007 16.3432 85.2787 16.5203 85.2129 16.6973C84.862 17.8925 84.3356 18.9771 83.3047 19.7518C81.9667 20.7478 80.4752 20.8806 78.896 20.6371C76.6587 20.3051 75.2989 18.9328 74.4873 16.8965C73.9828 15.6571 73.7635 14.3512 73.7416 12.9347C72.0746 12.9568 70.4295 12.9568 68.6968 12.9568ZM120 5.1216C118.903 5.21013 117.829 5.23226 116.776 5.40933C114.78 5.71919 113.047 6.53813 111.753 8.176C110.415 9.88027 109.889 11.8723 109.823 13.9749C109.735 17.6048 109.779 21.2568 109.779 24.8867C109.779 24.931 109.801 24.9974 109.823 25.0416C111.402 25.0416 112.959 25.0416 114.538 25.0416C114.538 24.8203 114.538 24.6432 114.538 24.4662C114.538 21.3232 114.538 18.1803 114.538 15.0373C114.538 14.5504 114.56 14.0856 114.626 13.5987C114.867 11.6509 116.074 10.5221 118.026 10.4336C118.552 10.4115 119.079 10.4336 119.583 10.4115C119.715 10.4115 119.846 10.3893 119.978 10.3893C120 8.66293 120 6.9808 120 5.1216Z" fill="white" />
	<path d="M19.7843 0.34082C19.7843 8.57443 19.7843 16.7859 19.7843 25.0416C18.1173 25.0416 16.4723 25.0416 14.7834 25.0416C14.7834 21.3011 14.7834 17.5606 14.7834 13.82C11.5153 13.82 8.31292 13.82 5.04478 13.82C5.04478 17.5384 5.04478 21.279 5.04478 25.0859C3.33394 25.0859 1.66697 25.0859 0 25.0859C0 17.627 0 10.168 0 2.68696C0.241272 1.60242 0.811552 0.761354 1.88631 0.34082C2.93913 0.34082 3.97002 0.34082 5.02285 0.34082C5.02285 3.24029 5.02285 6.16189 5.02285 9.06136C8.31292 9.06136 11.5372 9.06136 14.7834 9.06136C14.7834 6.13976 14.7834 3.24029 14.7834 0.34082C16.4284 0.34082 18.1173 0.34082 19.7843 0.34082Z" fill="#007AFF" />
	<path d="M27.1979 25.5286C26.7373 25.44 26.2986 25.3736 25.86 25.263C24.8071 24.9974 23.842 24.5326 23.0744 23.7579C22.2847 22.9611 21.7803 21.9872 21.6048 20.9027C21.3416 19.2648 21.3416 17.6491 22.1093 16.1219C22.7015 14.9267 23.6885 14.152 24.8729 13.643C26.3206 13.0232 27.834 12.8019 29.3913 12.6248C30.2467 12.5363 31.1021 12.3814 31.826 11.8502C32.6375 11.2526 32.6594 10.2566 31.8918 9.63682C31.4312 9.26056 30.8609 9.12776 30.3125 9.08349C29.2816 8.99496 28.2507 8.95069 27.3295 9.59256C27.1541 9.72536 26.9786 9.88029 26.8909 10.0795C26.7812 10.3672 26.6057 10.4115 26.3206 10.4115C24.9168 10.3894 23.4911 10.4115 21.9557 10.4115C22.1093 9.81389 22.2189 9.26056 22.3944 8.72936C23.184 6.60455 24.7852 5.52002 26.9347 5.05522C28.2507 4.78962 29.5668 4.83389 30.8828 4.90029C32.3962 4.96669 33.8658 5.29869 35.138 6.22829C36.2566 7.04722 37.0023 8.13176 37.0462 9.52616C37.134 12.3371 37.1778 15.1702 37.134 17.9811C37.112 19.4419 36.7172 20.8584 35.9495 22.0979C35.0502 23.5366 33.7123 24.3998 32.1111 24.9088C31.146 25.2187 30.159 25.44 29.15 25.4622C29.0842 25.4622 28.9965 25.5286 28.9307 25.5507C28.3385 25.5286 27.7682 25.5286 27.1979 25.5286ZM32.5717 15.2366C31.146 15.635 29.7203 15.9891 28.3165 16.4318C27.2637 16.7638 26.3644 17.3171 26.1451 18.5123C25.9477 19.5968 26.4083 20.9248 27.6366 21.2126C28.0972 21.3232 28.5798 21.3232 29.0404 21.2568C30.0932 21.124 31.0144 20.7035 31.6724 19.7739C32.6814 18.3795 32.5498 16.7638 32.5717 15.2366Z" fill="#007AFF" />
	<path d="M97.6274 25.5286C97.1668 25.44 96.7281 25.3736 96.2895 25.263C95.2366 24.9974 94.2716 24.5326 93.5039 23.7579C92.7142 22.9611 92.2098 21.9872 92.0343 20.9027C91.7711 19.2648 91.7711 17.6491 92.5388 16.1219C93.131 14.9267 94.118 14.152 95.3024 13.643C96.7501 13.0232 98.2635 12.8019 99.8208 12.6248C100.676 12.5363 101.532 12.3814 102.255 11.8502C103.067 11.2526 103.089 10.2566 102.321 9.63682C101.861 9.26056 101.29 9.12776 100.742 9.08349C99.7111 8.99496 98.6803 8.95069 97.759 9.59256C97.5836 9.72536 97.4081 9.88029 97.3204 10.0795C97.2107 10.3672 97.0352 10.4115 96.7501 10.4115C95.3463 10.3894 93.9206 10.4115 92.3852 10.4115C92.5388 9.81389 92.6484 9.26056 92.8239 8.72936C93.6135 6.60455 95.2147 5.52002 97.3642 5.05522C98.6803 4.78962 99.9963 4.83389 101.312 4.90029C102.826 4.96669 104.295 5.29869 105.567 6.22829C106.686 7.04722 107.432 8.13176 107.476 9.52616C107.563 12.3371 107.607 15.1702 107.563 17.9811C107.542 19.4419 107.147 20.8584 106.379 22.0979C105.48 23.5366 104.142 24.3998 102.541 24.9088C101.576 25.2187 100.589 25.44 99.5795 25.4622C99.5137 25.4622 99.426 25.5286 99.3602 25.5507C98.768 25.5286 98.1977 25.5286 97.6274 25.5286ZM103.001 15.2587C101.576 15.6571 100.172 16.0112 98.7899 16.4318C97.759 16.7638 96.8378 17.2728 96.5965 18.4902C96.3772 19.5968 96.8378 20.9248 98.088 21.2347C98.439 21.3232 98.8338 21.279 99.1847 21.279C100.742 21.2568 102.124 20.3272 102.628 18.7558C103.023 17.6048 103.001 16.3875 103.001 15.2587Z" fill="#007AFF" />
	<path d="M94.6665 0.34082C94.6884 0.385087 94.7103 0.429354 94.7323 0.451487C95.6754 1.15975 95.9606 2.11149 95.829 3.24029C95.7631 3.81576 95.829 4.39122 95.829 4.96669C95.7631 4.98882 95.7193 5.01096 95.6535 5.01096C94.3375 5.03309 93.0434 5.09949 91.7273 5.09949C87.0773 5.12163 82.4274 5.09949 77.7774 5.12163C77.2071 5.12163 76.6149 5.23229 76.0666 5.40936C74.7067 5.82989 73.8512 7.00296 73.8074 8.44163C73.7854 9.1499 73.8074 9.85817 73.8074 10.5886C72.0746 10.5886 70.3857 10.5886 68.6091 10.5886C68.6091 10.168 68.5871 9.72536 68.6091 9.28269C68.6529 7.77763 68.8942 6.31682 69.5303 4.96669C70.627 2.59842 72.5571 1.29256 75.0137 0.71709C75.6718 0.562157 76.3517 0.47362 77.0097 0.34082C82.9319 0.34082 88.8101 0.34082 94.6665 0.34082Z" fill="#FF9D0C" />
	<path d="M66.306 25.1745C65.319 25.1745 64.3977 25.263 63.4765 25.1523C62.4237 25.0417 61.5683 24.4219 61.5683 23.0718C61.5463 19.6854 61.5683 16.299 61.5463 12.9126C61.5463 12.3814 61.4147 11.8281 61.2831 11.2969C61.0638 10.4115 60.4935 9.83605 59.6381 9.57045C58.4537 9.21632 57.3131 9.26058 56.2384 9.96885C55.69 10.3451 55.4487 10.9206 55.3171 11.5182C55.2075 12.0051 55.2075 12.5142 55.2075 13.0233C55.2075 16.8523 55.2075 20.6593 55.2075 24.4883C55.2075 24.6654 55.2075 24.8425 55.2075 25.0417C53.6282 25.0417 52.0709 25.0417 50.4698 25.0417C50.4698 24.8646 50.4698 24.6875 50.4698 24.5326C50.4698 20.615 50.4917 16.7195 50.4478 12.8019C50.4478 12.1158 50.2724 11.3854 50.0091 10.7435C49.6582 9.88032 48.8905 9.48192 47.9693 9.34912C47.2674 9.23845 46.5875 9.28272 45.9295 9.50405C44.8986 9.83605 44.3502 10.5886 44.2186 11.651C44.1528 12.2043 44.1309 12.7798 44.1309 13.3553C44.1309 17.0958 44.1309 20.8142 44.1309 24.5547C44.1309 24.7097 44.1309 24.8867 44.1309 25.0638C42.5516 25.0638 40.9943 25.0638 39.3932 25.0638C39.3932 24.931 39.3932 24.7982 39.3932 24.6654C39.3932 20.46 39.3493 16.2769 39.4151 12.0715C39.459 10.0795 40.0512 8.22032 41.4988 6.75952C42.442 5.80778 43.6264 5.23232 44.9424 5.05525C46.1488 4.90032 47.3552 4.87818 48.5615 4.85605C50.0091 4.85605 51.8516 5.58645 52.8386 6.44965C53.9572 5.52005 55.3171 5.12165 56.7209 4.94459C58.7169 4.70112 60.6909 4.78965 62.5553 5.65285C64.639 6.62672 65.7138 8.39738 66.1086 10.6329C66.2402 11.4075 66.284 12.2043 66.284 13.0011C66.306 16.8523 66.284 20.7035 66.284 24.5547C66.306 24.7539 66.306 24.931 66.306 25.1745Z" fill="#007AFF" />
	<path d="M68.6968 12.9568C70.4296 12.9568 72.0747 12.9568 73.7197 12.9568C73.7416 14.3733 73.961 15.6792 74.4654 16.9187C75.277 18.9549 76.6588 20.3272 78.8742 20.6592C80.4534 20.9027 81.9449 20.7477 83.2829 19.7739C84.3138 18.9992 84.8402 17.9147 85.1911 16.7195C85.235 16.5424 85.2788 16.3432 85.3227 16.1661C86.902 16.1661 88.4812 16.1661 90.1701 16.1661C90.0604 16.8744 89.9946 17.5605 89.8411 18.2245C89.4024 20.0173 88.6128 21.6331 87.231 22.9168C86.0685 24.0013 84.7086 24.6654 83.2171 25.0859C81.6159 25.5507 79.9709 25.5507 78.3258 25.4179C76.3079 25.263 74.4216 24.6211 72.8423 23.3152C71.4386 22.1421 70.4296 20.6592 69.7935 18.9107C69.3329 17.6269 69.0039 16.3211 68.8942 14.9709C68.8504 14.2848 68.7626 13.5987 68.6968 12.9568Z" fill="#007AFF" />
	<path d="M120 5.12158C120 6.95865 120 8.66292 120 10.3893C119.846 10.3893 119.737 10.4115 119.605 10.4115C119.079 10.4115 118.552 10.3893 118.048 10.4336C116.096 10.5221 114.911 11.6509 114.648 13.5987C114.582 14.0635 114.56 14.5504 114.56 15.0373C114.56 18.1803 114.56 21.3232 114.56 24.4661C114.56 24.6432 114.56 24.8203 114.56 25.0416C112.981 25.0416 111.424 25.0416 109.845 25.0416C109.845 24.9973 109.801 24.9309 109.801 24.8867C109.801 21.2568 109.757 17.6048 109.845 13.9749C109.888 11.8723 110.437 9.85812 111.775 8.17598C113.047 6.53811 114.802 5.71918 116.798 5.40931C117.828 5.25438 118.881 5.23225 120 5.12158Z" fill="#007AFF" />
	<path d="M74.7283 27.8305C74.7722 27.8526 74.8161 27.8969 74.8161 27.9412C74.8161 27.9854 74.8161 28.0518 74.7722 28.0961C74.7503 28.1404 74.7064 28.1625 74.6625 28.1625C74.6187 28.1625 74.5748 28.1625 74.5309 28.1404C74.4432 28.074 74.3335 28.0297 74.2239 28.0076C74.1142 27.9854 74.0045 27.9633 73.8729 27.9633C73.6974 27.9633 73.5439 27.9854 73.3904 28.0518C73.2368 28.1182 73.1272 28.2068 73.0175 28.3174C72.9078 28.4281 72.8201 28.5609 72.7762 28.7158C72.7104 28.8708 72.6885 29.0257 72.6885 29.2028C72.6885 29.402 72.7104 29.5791 72.7762 29.734C72.842 29.8889 72.9297 30.0217 73.0394 30.1324C73.1491 30.243 73.2807 30.3316 73.4123 30.3759C73.5439 30.4201 73.7194 30.4644 73.8729 30.4644C73.9826 30.4644 74.1142 30.4422 74.2239 30.4201C74.3335 30.398 74.4432 30.3316 74.5309 30.2873C74.5748 30.2652 74.6187 30.2652 74.6625 30.2652C74.7064 30.2652 74.7283 30.2873 74.7722 30.3316C74.8161 30.3758 74.8161 30.4201 74.8161 30.4865C74.8161 30.5308 74.7722 30.5751 74.7283 30.5972C74.6625 30.6415 74.5748 30.6857 74.4871 30.7079C74.3993 30.73 74.2897 30.7743 74.2019 30.7964C74.0922 30.8185 74.0045 30.8185 73.8948 30.8185C73.6755 30.8185 73.4781 30.7743 73.3026 30.7079C73.1052 30.6415 72.9517 30.5308 72.7981 30.398C72.6446 30.2652 72.5349 30.0881 72.4691 29.8889C72.4033 29.6897 72.3375 29.4684 72.3375 29.2249C72.3375 29.0036 72.3814 28.7822 72.4472 28.6052C72.5349 28.406 72.6446 28.251 72.7762 28.0961C72.9078 27.9633 73.0833 27.8526 73.2807 27.7641C73.4781 27.6756 73.6755 27.6534 73.8948 27.6534C74.0484 27.6534 74.2019 27.6756 74.3335 27.7198C74.4651 27.7641 74.5967 27.742 74.7283 27.8305Z" fill="#414042" />
	<path d="M77.47 28.4059C77.5138 28.4059 77.5577 28.4281 77.6016 28.4502C77.6235 28.4945 77.6454 28.5166 77.6454 28.583V30.5307C77.6454 30.575 77.6235 30.6193 77.6016 30.6635C77.5796 30.7078 77.5358 30.7078 77.47 30.7078C77.4261 30.7078 77.3822 30.6857 77.3384 30.6635C77.3164 30.6193 77.2945 30.575 77.2945 30.5307V30.1102H77.3822C77.3822 30.1766 77.3603 30.243 77.3164 30.3315C77.2726 30.3979 77.2067 30.4865 77.1409 30.5529C77.0751 30.6193 76.9655 30.6635 76.8777 30.7078C76.79 30.7521 76.6584 30.7742 76.5487 30.7742C76.3513 30.7742 76.1759 30.7299 76.0004 30.6193C75.8249 30.5086 75.7153 30.3758 75.6275 30.1987C75.5398 30.0217 75.4959 29.8225 75.4959 29.579C75.4959 29.3355 75.5398 29.1363 75.6275 28.9593C75.7153 28.7822 75.8469 28.6494 76.0004 28.5387C76.1539 28.4281 76.3294 28.3838 76.5268 28.3838C76.6584 28.3838 76.7681 28.4059 76.8777 28.4502C76.9874 28.4945 77.0751 28.5387 77.1629 28.6273C77.2506 28.6937 77.3164 28.7822 77.3603 28.8707C77.4042 28.9593 77.4261 29.0478 77.4261 29.1363L77.3164 29.1142V28.6273C77.3164 28.583 77.3384 28.5387 77.3603 28.4945C77.3822 28.4281 77.4042 28.4059 77.47 28.4059ZM76.5707 30.4422C76.7242 30.4422 76.8558 30.3979 76.9655 30.3315C77.0751 30.2651 77.1629 30.1545 77.2287 30.0217C77.2945 29.8889 77.3164 29.7339 77.3164 29.579C77.3164 29.4241 77.2945 29.2691 77.2287 29.1363C77.1629 29.0035 77.0751 28.8929 76.9655 28.8265C76.8558 28.7601 76.7242 28.7158 76.5707 28.7158C76.4171 28.7158 76.3075 28.7601 76.1759 28.8265C76.0662 28.8929 75.9785 29.0035 75.9127 29.1363C75.8469 29.2691 75.8249 29.4241 75.8249 29.579C75.8249 29.7339 75.8469 29.8889 75.9127 30.0217C75.9785 30.1545 76.0662 30.2651 76.1759 30.3315C76.2855 30.3979 76.4171 30.4422 76.5707 30.4422Z" fill="#414042" />
	<path d="M78.8081 30.7299C78.7642 30.7299 78.7204 30.7078 78.6765 30.6856C78.6326 30.6635 78.6326 30.5971 78.6326 30.5528V28.6273C78.6326 28.583 78.6546 28.5387 78.6765 28.4945C78.7204 28.4502 78.7423 28.4502 78.8081 28.4502C78.852 28.4502 78.8958 28.4723 78.9397 28.4945C78.9616 28.5387 78.9836 28.583 78.9836 28.6273V29.2027L78.9397 29.1142C78.9616 29.0256 78.9836 28.9371 79.0274 28.8486C79.0713 28.7601 79.1371 28.6937 79.2029 28.6051C79.2687 28.5387 79.3564 28.4723 79.4442 28.4502C79.5319 28.4059 79.6416 28.3838 79.7512 28.3838C79.817 28.3838 79.8828 28.4059 79.9267 28.4281C79.9706 28.4502 80.0144 28.4945 80.0144 28.5609C80.0144 28.6273 79.9925 28.6715 79.9706 28.6937C79.9486 28.7158 79.9048 28.7379 79.8609 28.7379C79.817 28.7379 79.7951 28.7379 79.7512 28.7158C79.7074 28.6937 79.6635 28.6937 79.6196 28.6937C79.5538 28.6937 79.4661 28.7158 79.4003 28.76C79.3345 28.8043 79.2687 28.8486 79.2029 28.9371C79.1371 29.0035 79.0932 29.0921 79.0494 29.1806C79.0055 29.2691 78.9836 29.3798 78.9836 29.4904V30.575C78.9836 30.6192 78.9616 30.6635 78.9397 30.7078C78.9178 30.752 78.852 30.7299 78.8081 30.7299Z" fill="#414042" />
	<path d="M82.2735 27.9632C82.2296 27.9632 82.1858 27.9411 82.1419 27.919C82.098 27.8968 82.098 27.8526 82.098 27.7862C82.098 27.7419 82.12 27.6976 82.1419 27.6755C82.1638 27.6534 82.2296 27.6312 82.2735 27.6312H84.3133C84.3572 27.6312 84.4011 27.6534 84.4449 27.6755C84.4888 27.6976 84.4888 27.7419 84.4888 27.8083C84.4888 27.8747 84.4669 27.8968 84.4449 27.919C84.423 27.9411 84.3572 27.9632 84.3133 27.9632H82.2735ZM83.2824 30.7299C83.2166 30.7299 83.1728 30.7078 83.1508 30.6856C83.1289 30.6635 83.107 30.5971 83.107 30.5528V27.8083H83.4799V30.5307C83.4799 30.575 83.4579 30.6192 83.436 30.6635C83.414 30.7078 83.3482 30.7299 83.2824 30.7299Z" fill="#414042" />
	<path d="M85.454 30.7299C85.4101 30.7299 85.3662 30.7078 85.3224 30.6856C85.2785 30.6635 85.2785 30.5971 85.2785 30.5528V28.6273C85.2785 28.583 85.3004 28.5387 85.3224 28.4945C85.3662 28.4502 85.3882 28.4502 85.454 28.4502C85.4978 28.4502 85.5417 28.4723 85.5856 28.4945C85.6075 28.5387 85.6294 28.583 85.6294 28.6273V29.2027L85.5856 29.1142C85.6075 29.0256 85.6294 28.9371 85.6733 28.8486C85.7172 28.7601 85.783 28.6937 85.8488 28.6051C85.9146 28.5387 86.0023 28.4723 86.0901 28.4502C86.1778 28.4059 86.2875 28.3838 86.3971 28.3838C86.4629 28.3838 86.5287 28.4059 86.5726 28.4281C86.6165 28.4502 86.6603 28.4945 86.6603 28.5609C86.6603 28.6273 86.6384 28.6715 86.6165 28.6937C86.5945 28.7158 86.5507 28.7379 86.5068 28.7379C86.4629 28.7379 86.441 28.7379 86.3971 28.7158C86.3533 28.6937 86.3094 28.6937 86.2655 28.6937C86.1997 28.6937 86.112 28.7158 86.0462 28.76C85.9804 28.8043 85.9146 28.8486 85.8488 28.9371C85.783 29.0035 85.7391 29.0921 85.6952 29.1806C85.6514 29.2691 85.6294 29.3798 85.6294 29.4904V30.575C85.6294 30.6192 85.6075 30.6635 85.5856 30.7078C85.5636 30.752 85.5198 30.7299 85.454 30.7299Z" fill="#414042" />
	<path d="M89.2265 28.4059C89.2704 28.4059 89.3143 28.4281 89.3581 28.4502C89.3801 28.4945 89.402 28.5166 89.402 28.583V30.5307C89.402 30.575 89.3801 30.6193 89.3581 30.6635C89.3362 30.7078 89.2923 30.7078 89.2265 30.7078C89.1827 30.7078 89.1388 30.6857 89.0949 30.6635C89.073 30.6193 89.0511 30.575 89.0511 30.5307V30.1102H89.1388C89.1388 30.1766 89.1169 30.243 89.073 30.3315C89.0291 30.3979 88.9633 30.4865 88.8975 30.5529C88.8317 30.6193 88.7221 30.6635 88.6343 30.7078C88.5466 30.7521 88.415 30.7742 88.3053 30.7742C88.1079 30.7742 87.9325 30.7299 87.757 30.6193C87.5815 30.5086 87.4718 30.3758 87.3841 30.1987C87.2964 30.0217 87.2525 29.8225 87.2525 29.579C87.2525 29.3355 87.2964 29.1363 87.3841 28.9593C87.4718 28.7822 87.6034 28.6494 87.757 28.5387C87.9105 28.4281 88.086 28.3838 88.2834 28.3838C88.415 28.3838 88.5247 28.4059 88.6343 28.4502C88.744 28.4945 88.8317 28.5387 88.9195 28.6273C89.0072 28.6937 89.073 28.7822 89.1169 28.8707C89.1607 28.9593 89.1827 29.0478 89.1827 29.1363L89.073 29.1142V28.6273C89.073 28.583 89.0949 28.5387 89.1169 28.4945C89.1388 28.4281 89.1827 28.4059 89.2265 28.4059ZM88.3273 30.4422C88.4808 30.4422 88.6124 30.3979 88.7221 30.3315C88.8317 30.2651 88.9195 30.1545 88.9853 30.0217C89.0511 29.8889 89.073 29.7339 89.073 29.579C89.073 29.4241 89.0511 29.2691 88.9853 29.1363C88.9195 29.0035 88.8317 28.8929 88.7221 28.8265C88.6124 28.7601 88.4808 28.7158 88.3273 28.7158C88.1737 28.7158 88.0641 28.7601 87.9325 28.8265C87.8228 28.8929 87.735 29.0035 87.6692 29.1363C87.6034 29.2691 87.5815 29.4241 87.5815 29.579C87.5815 29.7339 87.6034 29.8889 87.6692 30.0217C87.735 30.1545 87.8228 30.2651 87.9325 30.3315C88.0641 30.3979 88.1957 30.4422 88.3273 30.4422Z" fill="#414042" />
	<path d="M92.2316 27.4542C92.2754 27.4542 92.3193 27.4764 92.3632 27.4985C92.3851 27.5428 92.407 27.587 92.407 27.6313V30.5529C92.407 30.5971 92.3851 30.6414 92.3632 30.6857C92.3412 30.7299 92.2974 30.7299 92.2316 30.7299C92.1877 30.7299 92.1438 30.7078 92.1 30.6857C92.078 30.6414 92.0561 30.5971 92.0561 30.5529V30.1323L92.1438 30.1102C92.1438 30.1766 92.1219 30.243 92.078 30.3315C92.0341 30.4201 91.9684 30.4865 91.9025 30.5529C91.8367 30.6193 91.7271 30.6857 91.6393 30.7299C91.5516 30.7742 91.42 30.7963 91.3103 30.7963C91.1129 30.7963 90.9375 30.7521 90.762 30.6414C90.5865 30.5307 90.4768 30.3979 90.3891 30.2209C90.3014 30.0438 90.2575 29.8446 90.2575 29.6011C90.2575 29.3577 90.3014 29.1585 90.3891 28.9814C90.4768 28.8043 90.6084 28.6494 90.762 28.5609C90.9155 28.4724 91.091 28.406 91.2884 28.406C91.42 28.406 91.5297 28.4281 91.6393 28.4724C91.749 28.5166 91.8367 28.5609 91.9245 28.6494C92.0122 28.7158 92.078 28.8044 92.1219 28.8929C92.1658 28.9814 92.1877 29.07 92.1877 29.1585L92.078 29.1363V27.6977C92.078 27.6534 92.1 27.6092 92.1219 27.5649C92.1438 27.4542 92.1877 27.4542 92.2316 27.4542ZM91.3323 30.4422C91.4858 30.4422 91.6174 30.3979 91.7271 30.3315C91.8367 30.2651 91.9245 30.1545 91.9903 30.0217C92.0561 29.8889 92.078 29.7339 92.078 29.579C92.078 29.4241 92.0561 29.2691 91.9903 29.1363C91.9245 29.0036 91.8367 28.8929 91.7271 28.8265C91.6174 28.7601 91.4858 28.7158 91.3323 28.7158C91.1787 28.7158 91.0691 28.7601 90.9375 28.8265C90.8278 28.8929 90.7401 29.0036 90.6742 29.1363C90.6084 29.2691 90.5865 29.4241 90.5865 29.579C90.5865 29.7339 90.6084 29.8889 90.6742 30.0217C90.7401 30.1545 90.8278 30.2651 90.9375 30.3315C91.0691 30.3979 91.2007 30.4422 91.3323 30.4422Z" fill="#414042" />
	<path d="M93.5694 28.0961C93.5036 28.0961 93.4378 28.0739 93.4159 28.0518C93.372 28.0297 93.372 27.9854 93.372 27.919V27.8526C93.372 27.7862 93.3939 27.7419 93.4378 27.7198C93.4817 27.6977 93.5255 27.6755 93.5913 27.6755C93.6571 27.6755 93.723 27.6977 93.7449 27.7198C93.7888 27.7419 93.7888 27.7862 93.7888 27.8526V27.919C93.7888 27.9854 93.7668 28.0297 93.723 28.0518C93.6791 28.0739 93.6352 28.0961 93.5694 28.0961ZM93.7449 30.5307C93.7449 30.575 93.7229 30.6193 93.701 30.6635C93.6791 30.7078 93.6352 30.7078 93.5694 30.7078C93.5256 30.7078 93.4817 30.6857 93.4378 30.6635C93.3939 30.6414 93.3939 30.575 93.3939 30.5307V28.5609C93.3939 28.5166 93.4159 28.4723 93.4378 28.4281C93.4597 28.3838 93.5256 28.3838 93.5694 28.3838C93.6133 28.3838 93.6571 28.4059 93.701 28.4281C93.7449 28.4502 93.7449 28.5166 93.7449 28.5609V30.5307Z" fill="#414042" />
	<path d="M95.8286 28.3838C96.026 28.3838 96.1796 28.4281 96.2892 28.5166C96.3989 28.6051 96.4866 28.7158 96.5305 28.8486C96.5744 28.9814 96.5963 29.1363 96.5963 29.3134V30.5528C96.5963 30.5971 96.5744 30.6414 96.5524 30.6856C96.5305 30.7299 96.4866 30.7299 96.4208 30.7299C96.377 30.7299 96.3331 30.7078 96.2892 30.6856C96.2673 30.6414 96.2454 30.5971 96.2454 30.5528V29.3134C96.2454 29.2027 96.2234 29.092 96.2015 29.0035C96.1796 28.915 96.1138 28.8486 96.026 28.7822C95.9383 28.7379 95.8506 28.6937 95.719 28.6937C95.5874 28.6937 95.4777 28.7158 95.39 28.7822C95.2803 28.8265 95.2145 28.915 95.1487 29.0035C95.0829 29.092 95.061 29.2027 95.061 29.3134V30.5528C95.061 30.5971 95.039 30.6414 95.0171 30.6856C94.9952 30.7299 94.9513 30.7299 94.8855 30.7299C94.8416 30.7299 94.7978 30.7078 94.7539 30.6856C94.71 30.6635 94.71 30.5971 94.71 30.5528V28.6273C94.71 28.583 94.732 28.5387 94.7539 28.4945C94.7978 28.4502 94.8197 28.4502 94.8855 28.4502C94.9294 28.4502 94.9732 28.4723 95.0171 28.4945C95.039 28.5387 95.061 28.583 95.061 28.6273V28.9371L94.9732 29.0257C94.9952 28.9593 95.0171 28.8707 95.0829 28.7822C95.1268 28.6937 95.1926 28.6273 95.2803 28.583C95.368 28.5166 95.4558 28.4723 95.5435 28.4281C95.6312 28.3838 95.7409 28.3838 95.8286 28.3838Z" fill="#414042" />
	<path d="M98.5485 28.3838C98.6801 28.3838 98.7898 28.4059 98.8995 28.4502C99.0091 28.4945 99.0969 28.5387 99.1846 28.6273C99.2723 28.6937 99.3381 28.7601 99.382 28.8486C99.4259 28.915 99.4478 28.9814 99.4478 29.0478L99.3601 29.0035V28.6273C99.3601 28.583 99.382 28.5387 99.4039 28.4945C99.4259 28.4502 99.4697 28.4502 99.5355 28.4502C99.6013 28.4502 99.6233 28.4723 99.6671 28.4945C99.6891 28.5387 99.711 28.5609 99.711 28.6273V30.575C99.711 30.8184 99.6671 31.0176 99.5575 31.1726C99.4478 31.3275 99.3162 31.4603 99.1627 31.5267C99.0091 31.5931 98.8117 31.6374 98.5924 31.6374C98.5046 31.6374 98.4169 31.6374 98.3072 31.5931C98.1976 31.571 98.1098 31.5488 98.0221 31.5046C97.9344 31.4603 97.8905 31.4382 97.8686 31.3939C97.8247 31.3718 97.8028 31.3275 97.7808 31.2832C97.7589 31.239 97.7808 31.2168 97.8028 31.1726C97.8247 31.1283 97.8686 31.1062 97.9124 31.1062C97.9563 31.1062 98.0002 31.1283 98.066 31.1504C98.0879 31.1504 98.1318 31.1726 98.1976 31.1947C98.2634 31.2168 98.3292 31.239 98.395 31.2611C98.4608 31.2832 98.5485 31.2832 98.6143 31.2832C98.8556 31.2832 99.053 31.2168 99.1846 31.084C99.3162 30.9512 99.382 30.7742 99.382 30.575V30.1544L99.4259 30.1766C99.4039 30.2651 99.382 30.3315 99.3162 30.3979C99.2723 30.4643 99.2065 30.5307 99.1188 30.5971C99.0311 30.6635 98.9653 30.6856 98.8556 30.7299C98.7679 30.752 98.6582 30.7742 98.5704 30.7742C98.373 30.7742 98.1756 30.7299 98.0221 30.6192C97.8686 30.5086 97.737 30.3758 97.6273 30.1987C97.5176 30.0216 97.4738 29.8003 97.4738 29.579C97.4738 29.3355 97.5176 29.1363 97.6054 28.9593C97.6931 28.7822 97.8247 28.6272 98.0002 28.5387C98.1537 28.4281 98.3292 28.3838 98.5485 28.3838ZM98.5924 28.6937C98.4388 28.6937 98.3072 28.7379 98.1976 28.8043C98.0879 28.8707 97.9782 28.9814 97.9124 29.1142C97.8466 29.247 97.8028 29.4019 97.8028 29.5568C97.8028 29.7118 97.8466 29.8667 97.9124 29.9995C97.9782 30.1323 98.066 30.243 98.1976 30.3094C98.3292 30.3758 98.4388 30.42 98.5924 30.42C98.7459 30.42 98.8775 30.3758 98.9872 30.3094C99.0969 30.243 99.2065 30.1323 99.2723 29.9995C99.3381 29.8667 99.382 29.7118 99.382 29.5568C99.382 29.4019 99.3381 29.247 99.2723 29.1142C99.2065 28.9814 99.1188 28.8707 98.9872 28.8043C98.8775 28.7379 98.7459 28.6937 98.5924 28.6937Z" fill="#414042" />
	<path d="M103.681 30.7742C103.462 30.7742 103.242 30.7299 103.045 30.6635C102.847 30.575 102.694 30.4643 102.54 30.3315C102.387 30.1766 102.277 30.0216 102.211 29.8224C102.124 29.6232 102.102 29.424 102.102 29.2027C102.102 28.9814 102.146 28.76 102.211 28.583C102.299 28.3838 102.409 28.2288 102.54 28.0739C102.694 27.919 102.847 27.8083 103.045 27.7419C103.242 27.6534 103.44 27.6312 103.681 27.6312C103.834 27.6312 103.966 27.6534 104.12 27.6755C104.251 27.7198 104.383 27.764 104.492 27.8304C104.514 27.8526 104.536 27.8747 104.558 27.8968C104.58 27.919 104.58 27.9632 104.58 27.9854C104.58 28.0296 104.558 28.0739 104.536 28.1182C104.492 28.1624 104.471 28.1624 104.427 28.1624C104.405 28.1624 104.383 28.1624 104.383 28.1624C104.361 28.1624 104.339 28.1403 104.339 28.1403C104.251 28.096 104.142 28.0518 104.054 28.0296C103.944 28.0075 103.834 27.9854 103.725 27.9854C103.484 27.9854 103.286 28.0296 103.111 28.1403C102.935 28.251 102.782 28.4059 102.672 28.583C102.562 28.76 102.518 28.9814 102.518 29.2027C102.518 29.4462 102.562 29.6454 102.672 29.8224C102.782 29.9995 102.913 30.1544 103.111 30.2651C103.286 30.3758 103.505 30.42 103.725 30.42C103.834 30.42 103.966 30.3979 104.076 30.3758C104.207 30.3536 104.295 30.3094 104.383 30.243L104.361 30.3536V29.424L104.427 29.4904H103.769C103.725 29.4904 103.681 29.4683 103.637 29.4462C103.593 29.424 103.593 29.3798 103.593 29.3134C103.593 29.2691 103.615 29.2248 103.637 29.1806C103.659 29.1363 103.725 29.1363 103.769 29.1363H104.558C104.602 29.1363 104.646 29.1584 104.69 29.1806C104.734 29.2248 104.734 29.2691 104.734 29.3134V30.3315C104.734 30.3758 104.734 30.3979 104.712 30.42C104.69 30.4422 104.668 30.4643 104.646 30.4865C104.514 30.575 104.361 30.6414 104.207 30.6857C104.054 30.7299 103.856 30.7742 103.681 30.7742Z" fill="#414042" />
	<path d="M105.787 30.7299C105.743 30.7299 105.699 30.7078 105.655 30.6856C105.611 30.6635 105.611 30.5971 105.611 30.5528V28.6273C105.611 28.583 105.633 28.5387 105.655 28.4945C105.699 28.4502 105.721 28.4502 105.787 28.4502C105.831 28.4502 105.874 28.4723 105.918 28.4945C105.94 28.5387 105.962 28.583 105.962 28.6273V29.2027L105.918 29.1142C105.94 29.0256 105.962 28.9371 106.006 28.8486C106.05 28.7601 106.116 28.6937 106.181 28.6051C106.247 28.5387 106.335 28.4723 106.423 28.4502C106.51 28.4059 106.62 28.3838 106.73 28.3838C106.796 28.3838 106.861 28.4059 106.905 28.4281C106.949 28.4502 106.993 28.4945 106.993 28.5609C106.993 28.6273 106.971 28.6715 106.949 28.6937C106.927 28.7158 106.883 28.7379 106.84 28.7379C106.796 28.7379 106.774 28.7379 106.73 28.7158C106.686 28.6937 106.642 28.6937 106.598 28.6937C106.532 28.6937 106.445 28.7158 106.379 28.76C106.313 28.8043 106.247 28.8486 106.181 28.9371C106.116 29.0035 106.072 29.0921 106.028 29.1806C105.984 29.2691 105.962 29.3798 105.962 29.4904V30.575C105.962 30.6192 105.94 30.6635 105.918 30.7078C105.896 30.752 105.852 30.7299 105.787 30.7299Z" fill="#414042" />
	<path d="M109.844 29.579C109.844 29.8003 109.8 30.0217 109.691 30.1987C109.581 30.3758 109.449 30.5307 109.296 30.6193C109.142 30.7078 108.923 30.7742 108.704 30.7742C108.484 30.7742 108.287 30.7299 108.133 30.6193C107.98 30.5086 107.826 30.3758 107.717 30.1987C107.607 30.0217 107.563 29.8003 107.563 29.579C107.563 29.3577 107.607 29.1363 107.717 28.9593C107.826 28.7822 107.958 28.6273 108.133 28.5387C108.309 28.4281 108.506 28.3838 108.704 28.3838C108.923 28.3838 109.12 28.4281 109.296 28.5387C109.471 28.6494 109.603 28.7822 109.691 28.9593C109.8 29.1363 109.844 29.3355 109.844 29.579ZM109.493 29.579C109.493 29.4019 109.449 29.247 109.384 29.1363C109.318 29.0035 109.23 28.915 109.098 28.8265C108.989 28.7601 108.857 28.7158 108.704 28.7158C108.55 28.7158 108.419 28.7601 108.309 28.8265C108.199 28.8929 108.09 29.0035 108.024 29.1363C107.958 29.2691 107.914 29.4241 107.914 29.579C107.914 29.7561 107.958 29.8889 108.024 30.0217C108.09 30.1545 108.177 30.243 108.309 30.3315C108.419 30.3979 108.572 30.4422 108.704 30.4422C108.857 30.4422 108.989 30.3979 109.098 30.3315C109.208 30.2651 109.318 30.1545 109.384 30.0217C109.449 29.8889 109.493 29.7339 109.493 29.579Z" fill="#414042" />
	<path d="M112.389 28.4281C112.433 28.4281 112.476 28.4502 112.52 28.4724C112.542 28.5166 112.564 28.5609 112.564 28.6052V29.8004C112.564 30.0881 112.476 30.3316 112.323 30.4865C112.147 30.6414 111.928 30.73 111.643 30.73C111.358 30.73 111.117 30.6414 110.963 30.4865C110.788 30.3316 110.722 30.0881 110.722 29.8004V28.6052C110.722 28.5609 110.744 28.5166 110.766 28.4724C110.809 28.4281 110.831 28.4281 110.897 28.4281C110.941 28.4281 110.985 28.4502 111.029 28.4724C111.051 28.5166 111.073 28.5609 111.073 28.6052V29.8004C111.073 29.9996 111.117 30.1545 111.226 30.2652C111.336 30.3758 111.467 30.4201 111.665 30.4201C111.862 30.4201 111.994 30.3758 112.104 30.2652C112.213 30.1545 112.257 29.9996 112.257 29.8004V28.6052C112.257 28.5609 112.279 28.5166 112.301 28.4724C112.301 28.4502 112.345 28.4281 112.389 28.4281Z" fill="#414042" />
	<path d="M114.67 28.4059C114.867 28.4059 115.043 28.4501 115.196 28.5608C115.35 28.6715 115.481 28.8043 115.569 28.9813C115.657 29.1584 115.701 29.3576 115.701 29.6011C115.701 29.8224 115.657 30.0216 115.569 30.2208C115.481 30.3979 115.35 30.5307 115.196 30.6413C115.043 30.752 114.867 30.7963 114.67 30.7963C114.56 30.7963 114.45 30.7741 114.363 30.752C114.275 30.7077 114.187 30.6635 114.1 30.6192C114.012 30.5749 113.968 30.5085 113.902 30.4421C113.836 30.3757 113.814 30.3093 113.792 30.2429L113.88 30.1765V31.4824C113.88 31.5267 113.858 31.5709 113.836 31.6152C113.814 31.6595 113.771 31.6595 113.705 31.6595C113.661 31.6595 113.617 31.6373 113.573 31.6152C113.529 31.5931 113.529 31.5488 113.529 31.4824V28.6493C113.529 28.6051 113.551 28.5608 113.573 28.5166C113.595 28.4723 113.639 28.4723 113.705 28.4723C113.749 28.4723 113.792 28.4944 113.836 28.5166C113.858 28.5608 113.88 28.5829 113.88 28.6493V29.0477L113.814 29.0035C113.836 28.9371 113.88 28.8485 113.924 28.7821C113.968 28.7157 114.034 28.6493 114.121 28.6051C114.209 28.5608 114.275 28.5165 114.363 28.4944C114.472 28.4059 114.582 28.4059 114.67 28.4059ZM114.626 28.7157C114.472 28.7157 114.341 28.76 114.231 28.8264C114.121 28.8928 114.034 29.0035 113.968 29.1363C113.902 29.2691 113.88 29.4019 113.88 29.5789C113.88 29.7339 113.902 29.8888 113.968 30.0216C114.034 30.1544 114.121 30.2429 114.231 30.3315C114.341 30.3979 114.472 30.4421 114.626 30.4421C114.779 30.4421 114.911 30.3979 115.021 30.3315C115.13 30.2651 115.218 30.1544 115.284 30.0216C115.35 29.8888 115.372 29.756 115.372 29.5789C115.372 29.424 115.35 29.2691 115.284 29.1363C115.218 29.0035 115.13 28.9149 115.021 28.8264C114.911 28.76 114.779 28.7157 114.626 28.7157Z" fill="#414042" />
</svg>
