<svg width="12" height="13" viewBox="0 0 12 13" fill="none" xmlns="http://www.w3.org/2000/svg">
	<path d="M0.639418 6.39123C0.902745 7.72729 1.74325 8.8571 2.73665 9.76117C3.72673 10.6622 4.82664 11.3004 5.52589 11.6569C5.82742 11.8107 6.17259 11.8107 6.47412 11.6569C7.17337 11.3004 8.27328 10.6622 9.26337 9.76118C10.2568 8.8571 11.0973 7.7273 11.3606 6.39123C11.578 5.28796 11.3459 3.95753 10.5242 2.90958C9.71583 1.8786 8.28954 1.0625 6 1.0625C3.71046 1.0625 2.28417 1.8786 1.47581 2.90958C0.654127 3.95753 0.421972 5.28796 0.639418 6.39123Z" stroke="#0F0F10" stroke-width="1.125" stroke-linecap="round" stroke-linejoin="round" />
	<circle cx="2" cy="2" r="1.4375" transform="matrix(-1 0 0 1 8 3.5)" stroke="#0F0F10" stroke-width="1.125" />
</svg>
