<svg width="16" height="16" viewBox="0 0 16 16" fill="none" xmlns="http://www.w3.org/2000/svg">
	<path d="M2.66667 0.75H13.3333C14.3919 0.75 15.25 1.60812 15.25 2.66667V4.66667C15.25 5.72521 14.3919 6.58333 13.3333 6.58333H2.66667C1.60812 6.58333 0.75 5.72521 0.75 4.66667V2.66667C0.75 1.60812 1.60812 0.75 2.66667 0.75Z" stroke="#0F0F10" stroke-width="1.5" stroke-linecap="round" stroke-linejoin="round" />
	<path d="M2.66667 9.41663H13.3333C14.3919 9.41663 15.25 10.2747 15.25 11.3333V13.3333C15.25 14.3918 14.3919 15.25 13.3333 15.25H2.66667C1.60812 15.25 0.75 14.3918 0.75 13.3333V11.3333C0.75 10.2747 1.60812 9.41663 2.66667 9.41663Z" stroke="#0F0F10" stroke-width="1.5" stroke-linecap="round" stroke-linejoin="round" />
</svg>
