<svg width="12" height="12" viewBox="0 0 12 12" fill="none" xmlns="http://www.w3.org/2000/svg">
	<path d="M0.5 6.0027C0.5 10.3115 1.05158 11.3122 4.625 11.474M0.5 6.0027C0.5 1.69097 1.05233 0.691843 4.63234 0.531015M0.5 6.0027H1.55041C2.71767 6.0027 3.9375 5.19468 3.9375 3.94107M11.5 6.0027C11.5 10.3115 10.9484 11.3122 7.375 11.474M11.5 6.0027C11.5 1.69097 10.9477 0.691844 7.36767 0.531015M11.5 6.0027H10.4496C9.28233 6.0027 8.0625 5.19468 8.0625 3.94107M4.625 11.474C5.04107 11.4929 5.4981 11.5004 6 11.5004C6.5019 11.5004 6.95893 11.4929 7.375 11.474M4.625 11.474V9.87537C4.625 9.11597 5.24061 8.50037 6 8.50037V8.50037C6.75939 8.50037 7.375 9.11597 7.375 9.87537V11.474M8.0625 3.94107C8.0625 5.31549 7.11653 6.0027 6 6.0027C4.88347 6.0027 3.9375 5.31549 3.9375 3.94107M8.0625 3.94107C8.0625 2.56665 7.36767 0.531015 7.36767 0.531015M3.9375 3.94107C3.9375 2.56665 4.63234 0.531015 4.63234 0.531015M4.63234 0.531015C5.54202 0.490149 6.45799 0.490149 7.36767 0.531015" stroke="#85858F" stroke-linecap="round" stroke-linejoin="round" />
</svg>
